<svg width="564" height="724" viewBox="0 0 564 724" fill="none" xmlns="http://www.w3.org/2000/svg">
<path d="M42.6712 29.7857C42.5866 29.7562 42.495 29.7525 42.4083 29.775C42.3214 29.7976 42.2428 29.8456 42.1832 29.9128C42.1236 29.9799 42.0854 30.0632 42.0733 30.1522L40.7771 41.6108C40.7856 41.671 40.7814 41.7322 40.7657 41.791C40.7499 41.8498 40.7228 41.9056 40.6853 41.9536L31.3926 48.7816C31.3184 48.8362 31.2625 48.9125 31.2326 48.9996C31.2028 49.0866 31.2001 49.1808 31.2251 49.2693C31.25 49.3578 31.3018 49.4364 31.3727 49.4951C31.4436 49.5538 31.5311 49.5901 31.6229 49.5979L43.0806 50.8939C43.1376 50.885 43.1967 50.8881 43.2524 50.903C43.3079 50.918 43.36 50.9446 43.4048 50.9807L50.2513 60.2784C50.3021 60.3568 50.3778 60.4168 50.4654 60.4492C50.5528 60.4815 50.6483 60.4847 50.7377 60.4585C50.8273 60.4321 50.9067 60.3775 50.9627 60.3027C51.0187 60.2279 51.0491 60.1366 51.0492 60.0431L52.3453 48.5844C52.3364 48.5275 52.3393 48.4693 52.3542 48.4136C52.3692 48.358 52.3958 48.306 52.4319 48.2612L61.7094 41.4899C61.7843 41.4393 61.8411 41.3664 61.8727 41.2817C61.9043 41.1968 61.9089 41.1036 61.8851 41.0162C61.8612 40.929 61.8107 40.8514 61.7405 40.7943C61.6702 40.7372 61.5837 40.7037 61.4934 40.6982L50.0347 39.4021C49.9718 39.3948 49.9103 39.3743 49.8557 39.3421C49.8012 39.31 49.7544 39.2661 49.7176 39.2145L42.8844 29.9414C42.8305 29.8696 42.756 29.8153 42.6712 29.7857Z" fill="url(#paint0_linear_74_181)"/>
<path d="M84.3836 32.5924C84.3437 32.5784 84.3004 32.5767 84.2594 32.5873C84.2183 32.598 84.1812 32.6207 84.153 32.6524C84.1249 32.6841 84.1068 32.7235 84.1011 32.7655L83.4886 38.1798C83.4926 38.2083 83.4907 38.2372 83.4832 38.2649C83.4758 38.2927 83.463 38.3191 83.4452 38.3418L79.0544 41.5681C79.0193 41.5939 78.9929 41.6299 78.9788 41.6711C78.9647 41.7122 78.9634 41.7567 78.9752 41.7985C78.987 41.8404 79.0115 41.8775 79.045 41.9052C79.0785 41.9329 79.1198 41.9501 79.1632 41.9538L84.5771 42.5661C84.604 42.5619 84.6319 42.5634 84.6582 42.5705C84.6845 42.5776 84.7091 42.5901 84.7302 42.6072L87.9653 47.0004C87.9893 47.0375 88.0251 47.0658 88.0665 47.0811C88.1078 47.0964 88.1529 47.0979 88.1951 47.0855C88.2375 47.073 88.275 47.0472 88.3014 47.0119C88.3279 46.9766 88.3422 46.9334 88.3423 46.8893L88.9547 41.4749C88.9505 41.448 88.9519 41.4205 88.9589 41.3942C88.966 41.3679 88.9786 41.3434 88.9956 41.3222L93.3793 38.1227C93.4147 38.0988 93.4416 38.0643 93.4565 38.0243C93.4714 37.9842 93.4736 37.9402 93.4624 37.8989C93.4511 37.8577 93.4272 37.821 93.394 37.794C93.3608 37.767 93.32 37.7512 93.2773 37.7486L87.863 37.1362C87.8332 37.1328 87.8041 37.1231 87.7783 37.1079C87.7526 37.0927 87.7305 37.0719 87.7131 37.0476L84.4844 32.6659C84.4589 32.632 84.4237 32.6063 84.3836 32.5924Z" fill="url(#paint1_linear_74_181)"/>
<path d="M488.518 666.615C488.459 666.547 488.382 666.498 488.296 666.474C488.209 666.45 488.117 666.452 488.032 666.481C487.947 666.509 487.872 666.562 487.817 666.633L480.965 675.909C480.942 675.965 480.908 676.016 480.865 676.059C480.822 676.102 480.771 676.137 480.714 676.159L469.252 677.426C469.161 677.437 469.074 677.475 469.005 677.535C468.936 677.596 468.886 677.676 468.864 677.765C468.841 677.854 468.846 677.948 468.878 678.034C468.911 678.121 468.968 678.196 469.044 678.248L478.318 685.1C478.372 685.12 478.422 685.153 478.463 685.193C478.503 685.234 478.535 685.283 478.556 685.337L479.836 696.812C479.841 696.906 479.877 696.995 479.936 697.067C479.996 697.139 480.077 697.189 480.167 697.211C480.258 697.233 480.354 697.226 480.44 697.189C480.526 697.152 480.598 697.088 480.645 697.007L487.497 687.732C487.517 687.678 487.549 687.629 487.59 687.588C487.631 687.548 487.68 687.516 487.733 687.495L499.153 686.27C499.244 686.264 499.329 686.229 499.399 686.171C499.469 686.114 499.519 686.035 499.542 685.948C499.565 685.86 499.56 685.768 499.528 685.683C499.496 685.599 499.438 685.526 499.362 685.476L490.087 678.624C490.036 678.587 489.993 678.538 489.962 678.483C489.931 678.428 489.912 678.367 489.906 678.304L488.625 666.856C488.614 666.767 488.577 666.683 488.518 666.615Z" fill="url(#paint2_linear_74_181)"/>
<path d="M450.747 652.241C450.708 652.195 450.656 652.162 450.599 652.146C450.541 652.13 450.479 652.132 450.422 652.151C450.365 652.17 450.315 652.205 450.279 652.253L445.698 658.454C445.683 658.491 445.66 658.525 445.631 658.554C445.602 658.583 445.568 658.606 445.53 658.621L437.868 659.468C437.807 659.475 437.749 659.501 437.702 659.541C437.656 659.582 437.623 659.635 437.608 659.695C437.593 659.754 437.596 659.817 437.618 659.875C437.639 659.933 437.678 659.983 437.728 660.018L443.929 664.598C443.965 664.612 443.998 664.634 444.025 664.661C444.052 664.688 444.073 664.721 444.087 664.757L444.943 672.428C444.946 672.491 444.97 672.551 445.01 672.599C445.05 672.647 445.104 672.681 445.165 672.695C445.225 672.71 445.29 672.705 445.347 672.68C445.404 672.656 445.453 672.613 445.484 672.559L450.064 666.358C450.078 666.322 450.1 666.289 450.127 666.262C450.154 666.235 450.187 666.214 450.223 666.2L457.857 665.381C457.918 665.376 457.975 665.353 458.022 665.315C458.068 665.276 458.102 665.224 458.117 665.165C458.133 665.107 458.129 665.045 458.108 664.988C458.086 664.932 458.047 664.883 457.997 664.85L451.796 660.269C451.762 660.244 451.733 660.212 451.712 660.175C451.692 660.138 451.679 660.097 451.675 660.055L450.819 652.402C450.811 652.342 450.787 652.286 450.747 652.241Z" fill="url(#paint3_linear_74_181)"/>
<g opacity="0.7">
<path d="M59.1993 625.814C59.0913 626.001 59.0461 626.219 59.0734 626.434L67.9309 650.108C67.986 650.244 68.073 650.365 68.1839 650.462C68.2951 650.559 68.4281 650.629 68.5711 650.665C68.7141 650.701 68.8641 650.704 69.0078 650.671C69.1518 650.638 69.2864 650.57 69.3997 650.475L150.924 580.394C151.026 580.319 151.115 580.225 151.181 580.116C151.246 580.008 151.29 579.887 151.309 579.762C151.328 579.637 151.322 579.509 151.292 579.386C151.262 579.262 151.21 579.145 151.135 579.043C151.06 578.941 150.965 578.854 150.856 578.788C150.748 578.722 150.627 578.68 150.502 578.66C150.377 578.641 150.248 578.644 150.125 578.674C150.001 578.704 149.885 578.759 149.783 578.834L59.6715 625.397C59.4726 625.481 59.3073 625.627 59.1993 625.814ZM77.8081 653.666C77.7429 653.819 77.7185 653.987 77.7391 654.152C77.76 654.316 77.8248 654.474 77.9258 654.605C78.0273 654.737 78.1635 654.84 78.3177 654.902L95.2314 661.605C95.4243 661.678 95.636 661.684 95.8334 661.624C96.0308 661.564 96.2031 661.441 96.3233 661.273L129.926 618.261C130.056 618.085 130.12 617.869 130.106 617.65C130.092 617.431 130 617.223 129.849 617.064C129.698 616.905 129.496 616.803 129.278 616.778C129.059 616.754 128.837 616.807 128.654 616.929L78.1122 653.282C77.9788 653.381 77.8734 653.514 77.8081 653.666ZM8.02843 669.874C7.89529 670.069 7.82326 670.3 7.82132 670.537C7.81957 670.774 7.88846 671.008 8.01902 671.206C8.14956 671.403 8.33602 671.558 8.55456 671.65L36.903 682.79C37.0623 682.809 37.2157 682.862 37.3547 682.942C37.4941 683.023 37.6179 683.13 37.7147 683.259L48.7823 711.635C48.8709 711.861 49.0273 712.056 49.2291 712.192C49.4307 712.327 49.6692 712.399 49.9122 712.396C50.155 712.392 50.3909 712.314 50.589 712.173C50.7872 712.032 50.9397 711.834 51.0225 711.605L62.1615 683.259C62.1777 683.108 62.2262 682.959 62.3023 682.827C62.3784 682.696 62.4819 682.581 62.6047 682.491L91.0062 671.38C91.2411 671.304 91.4457 671.152 91.5885 670.95C91.7306 670.75 91.8041 670.508 91.7982 670.262C91.7921 670.015 91.707 669.776 91.5545 669.582C91.4019 669.388 91.1898 669.248 90.9514 669.184L62.603 658.043C62.4517 658.027 62.305 657.98 62.1732 657.904C62.0415 657.828 61.9272 657.724 61.8375 657.601L50.9041 629.303C50.8264 629.077 50.6791 628.882 50.4847 628.744C50.2896 628.605 50.0551 628.53 49.8158 628.531C49.5769 628.532 49.3443 628.608 49.1507 628.748C48.9571 628.888 48.8125 629.086 48.7367 629.313L37.5965 657.661C37.5349 657.817 37.4406 657.96 37.3211 658.077C37.2018 658.194 37.0578 658.283 36.9012 658.342L8.57135 669.436C8.35133 669.525 8.1619 669.678 8.02843 669.874Z" fill="url(#paint4_linear_74_181)"/>
</g>
<g opacity="0.8">
<path d="M492.9 51.0411C493.034 51.0052 493.177 51.0134 493.305 51.0659L506.521 60.4968C506.596 60.5536 506.657 60.6277 506.698 60.7126C506.74 60.7977 506.761 60.8919 506.76 60.9866C506.758 61.0813 506.735 61.1748 506.691 61.2585C506.646 61.3423 506.582 61.4145 506.504 61.469L449.473 100.397C449.409 100.448 449.336 100.488 449.258 100.51C449.18 100.533 449.098 100.54 449.017 100.531C448.936 100.522 448.858 100.497 448.786 100.458C448.715 100.419 448.651 100.367 448.6 100.303C448.549 100.24 448.511 100.167 448.488 100.088C448.465 100.01 448.459 99.9282 448.467 99.8474C448.476 99.7664 448.5 99.6869 448.539 99.6154C448.578 99.5439 448.631 99.4811 448.695 99.43L492.563 51.2648C492.648 51.1553 492.766 51.077 492.9 51.0411ZM507.086 67.2162C507.192 67.2012 507.3 67.214 507.399 67.2541C507.497 67.2944 507.585 67.3608 507.649 67.4454C507.714 67.5303 507.755 67.6318 507.768 67.7378L509.115 79.3455C509.128 79.4773 509.097 79.6096 509.027 79.7221C508.957 79.8347 508.852 79.9211 508.728 79.9678L476.457 93.665C476.326 93.716 476.181 93.7201 476.047 93.6751C475.914 93.6299 475.8 93.5386 475.727 93.4181C475.654 93.2978 475.624 93.1556 475.645 93.0162C475.666 92.8766 475.736 92.7479 475.842 92.6543L506.797 67.341C506.881 67.2746 506.981 67.2314 507.086 67.2162ZM528.741 26.6186C528.885 26.5686 529.04 26.5623 529.188 26.6004C529.335 26.6388 529.468 26.7203 529.569 26.8342C529.67 26.9481 529.735 27.0895 529.756 27.2403L531.955 46.6798C531.94 46.7819 531.948 46.8858 531.974 46.9854C532.001 47.0852 532.047 47.1799 532.111 47.2613L547.876 58.8449C548.001 58.9376 548.096 59.0669 548.147 59.2147C548.197 59.3623 548.202 59.5222 548.16 59.6724C548.117 59.8225 548.03 59.9558 547.909 60.0553C547.789 60.1549 547.641 60.2165 547.485 60.2299L528.047 62.4284C527.95 62.4133 527.85 62.4186 527.756 62.444C527.661 62.4693 527.573 62.5145 527.497 62.5757L515.882 78.3491C515.796 78.4822 515.667 78.5839 515.519 78.6389C515.37 78.6937 515.208 78.6992 515.057 78.6546C514.905 78.6098 514.77 78.5172 514.675 78.3904C514.58 78.2634 514.529 78.1085 514.528 77.95L512.33 58.5105C512.345 58.4139 512.34 58.3151 512.314 58.2206C512.289 58.1262 512.244 58.0382 512.183 57.9621L496.443 46.4746C496.316 46.3889 496.22 46.2651 496.166 46.1215C496.113 45.9774 496.105 45.8194 496.145 45.6711C496.186 45.5231 496.272 45.3914 496.391 45.2946C496.51 45.1978 496.657 45.1409 496.81 45.1316L516.249 42.9327C516.356 42.9204 516.461 42.8856 516.553 42.831C516.646 42.7764 516.725 42.702 516.787 42.6145L528.38 26.8827C528.471 26.761 528.598 26.6688 528.741 26.6186Z" fill="url(#paint5_linear_74_181)"/>
</g>
<defs>
<linearGradient id="paint0_linear_74_181" x1="0.20016" y1="17.4997" x2="125.486" y2="104.548" gradientUnits="userSpaceOnUse">
<stop offset="0.18" stop-color="#70FFC2"/>
<stop offset="0.37" stop-color="#89FDFC"/>
<stop offset="0.59" stop-color="#96E3FF"/>
<stop offset="0.91" stop-color="#D78FFF"/>
</linearGradient>
<linearGradient id="paint1_linear_74_181" x1="64.3157" y1="26.7871" x2="123.514" y2="67.9182" gradientUnits="userSpaceOnUse">
<stop offset="0.18" stop-color="#70FFC2"/>
<stop offset="0.37" stop-color="#89FDFC"/>
<stop offset="0.59" stop-color="#96E3FF"/>
<stop offset="0.91" stop-color="#D78FFF"/>
</linearGradient>
<linearGradient id="paint2_linear_74_181" x1="457.88" y1="634.739" x2="522.857" y2="772.768" gradientUnits="userSpaceOnUse">
<stop offset="0.18" stop-color="#70FFC2"/>
<stop offset="0.37" stop-color="#89FDFC"/>
<stop offset="0.59" stop-color="#96E3FF"/>
<stop offset="0.91" stop-color="#D78FFF"/>
</linearGradient>
<linearGradient id="paint3_linear_74_181" x1="430.265" y1="630.931" x2="473.704" y2="723.207" gradientUnits="userSpaceOnUse">
<stop offset="0.18" stop-color="#70FFC2"/>
<stop offset="0.37" stop-color="#89FDFC"/>
<stop offset="0.59" stop-color="#96E3FF"/>
<stop offset="0.91" stop-color="#D78FFF"/>
</linearGradient>
<linearGradient id="paint4_linear_74_181" x1="-52.3507" y1="769.831" x2="255.383" y2="509.697" gradientUnits="userSpaceOnUse">
<stop offset="0.18" stop-color="#70FFC2"/>
<stop offset="0.37" stop-color="#89FDFC"/>
<stop offset="0.59" stop-color="#96E3FF"/>
<stop offset="0.91" stop-color="#D78FFF"/>
</linearGradient>
<linearGradient id="paint5_linear_74_181" x1="600.793" y1="5.77564" x2="388.247" y2="153.452" gradientUnits="userSpaceOnUse">
<stop offset="0.18" stop-color="#70FFC2"/>
<stop offset="0.37" stop-color="#89FDFC"/>
<stop offset="0.59" stop-color="#96E3FF"/>
<stop offset="0.91" stop-color="#D78FFF"/>
</linearGradient>
</defs>
</svg>
