<svg width="93" height="48" viewBox="0 0 93 48" fill="none" xmlns="http://www.w3.org/2000/svg">
<path d="M48.2487 14.8953C48.3605 14.8953 48.4699 14.9315 48.5589 14.9991L56.876 25.0933C56.9229 25.1533 56.9546 25.2235 56.9693 25.2983C56.9839 25.3732 56.981 25.451 56.9601 25.5244C56.9392 25.5977 56.9016 25.6656 56.8497 25.7215C56.7976 25.7775 56.7323 25.8201 56.6604 25.8464L4.16438 44.2471C4.10431 44.2736 4.03944 44.289 3.9738 44.2905C3.90834 44.2919 3.84296 44.28 3.78191 44.2563C3.72075 44.2326 3.66506 44.1965 3.61762 44.1512C3.57015 44.1058 3.5311 44.0522 3.50459 43.9922C3.47811 43.9321 3.46405 43.8671 3.46253 43.8016C3.46103 43.7361 3.47308 43.6708 3.4967 43.6097C3.52043 43.5485 3.5552 43.4915 3.60053 43.4441C3.6459 43.3966 3.70079 43.3589 3.76088 43.3324L47.9398 14.9991C48.0287 14.9316 48.137 14.8954 48.2487 14.8953ZM55.9152 30.44C56.0004 30.4503 56.0821 30.4828 56.1505 30.5346C56.2188 30.5866 56.2727 30.6564 56.3056 30.7357C56.3384 30.8153 56.349 30.9028 56.3371 30.9881L54.965 40.3015C54.9477 40.4068 54.8956 40.5032 54.8177 40.5762C54.7399 40.6492 54.6401 40.6945 54.5339 40.705L26.566 44.6349C26.4532 44.6471 26.3398 44.6202 26.2453 44.5573C26.1507 44.4943 26.0816 44.3996 26.0495 44.2905C26.0174 44.1816 26.024 44.0647 26.0692 43.9606C26.1146 43.8563 26.1961 43.7709 26.2979 43.7201L55.6642 30.4768C55.743 30.4426 55.8299 30.4298 55.9152 30.44ZM81.2311 3.36398C81.3533 3.35496 81.4755 3.38248 81.582 3.44284C81.6888 3.50342 81.7755 3.59466 81.8305 3.7044C81.8853 3.81408 81.9063 3.9376 81.8909 4.05927L79.5488 19.6447C79.5163 19.7212 79.5002 19.8035 79.5001 19.8866C79.5001 19.9698 79.5162 20.0531 79.5488 20.1297L89.4011 32.4306C89.4796 32.529 89.5265 32.6494 89.5351 32.775C89.5437 32.9004 89.5139 33.0257 89.4497 33.1338C89.3854 33.2418 89.2892 33.3272 89.175 33.3796C89.0605 33.4319 88.9322 33.4489 88.8083 33.4269L73.2242 31.0847C73.1521 31.0528 73.0729 31.0361 72.9941 31.0361C72.9155 31.0362 72.8374 31.0529 72.7655 31.0847L60.4383 40.937C60.3435 41.0226 60.2224 41.075 60.0952 41.0869C59.9684 41.0986 59.8412 41.069 59.7325 41.0027C59.6235 40.9362 59.5381 40.836 59.4906 40.7175C59.4431 40.599 59.4353 40.4677 59.4683 40.3443L61.8104 24.7588C61.8423 24.6868 61.8591 24.6089 61.8591 24.5301C61.859 24.4514 61.8423 24.3734 61.8104 24.3014L51.9581 12.0807C51.8771 11.9875 51.8279 11.8711 51.8162 11.7482C51.8045 11.6249 51.8313 11.5002 51.8937 11.3933C51.9561 11.2865 52.0503 11.202 52.1632 11.1515C52.2761 11.101 52.4021 11.0873 52.5233 11.112L68.1087 13.4542C68.1944 13.4669 68.2829 13.4616 68.3663 13.4384C68.4497 13.4152 68.527 13.3738 68.5937 13.3188L80.8946 3.4941C80.9912 3.41843 81.1087 3.37307 81.2311 3.36398Z" fill="url(#paint0_linear_1285_1749)"/>
<path d="M81.131 0.00267222C81.8193 -0.0225607 82.5012 0.131306 83.1103 0.447254L83.2396 0.51752L83.2416 0.518833L83.3683 0.593697C83.9534 0.954967 84.4366 1.46261 84.7684 2.06797L84.8367 2.19931L84.8374 2.19997L84.9011 2.33328C85.207 3.00588 85.3195 3.75001 85.2268 4.48198L85.2215 4.52072L85.2163 4.55881L83.0308 19.098L92.0282 30.3321L92.1208 30.4522C92.5407 31.0212 92.8007 31.6915 92.876 32.3928L92.8897 32.5438V32.5464L92.897 32.6968C92.9197 33.4496 92.729 34.198 92.3401 34.8521L92.3394 34.8527C91.9191 35.5592 91.298 36.1052 90.5762 36.436L90.5742 36.4374C89.8765 36.7566 89.089 36.8719 88.3087 36.7513L73.7905 34.5697L62.5801 43.529C61.9568 44.0508 61.1956 44.3611 60.4071 44.4346H60.4044C57.628 44.4346 58.8289 43.529 55.0012 44.034L55.0018 44.0346L27.0339 47.9643L26.982 47.9715L26.9295 47.9774C26.049 48.0732 25.1451 47.8641 24.3828 47.3569L24.3815 47.3555C23.6213 46.8491 23.0764 46.0957 22.8245 45.2403L22.8238 45.239C22.5739 44.389 22.6203 43.4613 22.9854 42.6208L22.9873 42.6168L23.0583 42.4632C23.4305 41.7025 24.0431 41.0872 24.7972 40.7111L24.8563 40.6822L26.1014 40.1201L5.35577 47.3917C4.96212 47.544 4.5219 47.6409 4.05092 47.6517H4.04698C3.52724 47.663 3.02477 47.5686 2.56679 47.391H2.56548C2.13647 47.2245 1.75509 46.9879 1.43071 46.7061L1.29477 46.5826C0.958545 46.2613 0.649386 45.8502 0.428596 45.35C0.244519 44.9327 0.140833 44.4964 0.1101 44.0648L0.101562 43.8797V43.682C0.114438 43.2263 0.208299 42.7924 0.360956 42.3975L0.36227 42.3942L0.429253 42.2314C0.596835 41.8511 0.838438 41.4687 1.16935 41.1222L1.30922 40.9823C1.53944 40.7649 1.78992 40.5831 2.05063 40.4346L46.103 12.1817C46.9835 11.5525 48.559 10.6041 48.9898 9.69941L48.9904 9.69744L49.0712 9.56544C49.486 8.91514 50.0829 8.39898 50.7898 8.08263L50.7904 8.08197L50.9336 8.02156C51.6101 7.75036 52.345 7.67283 53.0567 7.79172L67.4219 9.95092L78.7964 0.866881L78.8214 0.84718L78.9396 0.75787C79.5384 0.323836 80.2461 0.065912 80.9819 0.0112092L80.9832 0.0105525L81.131 0.00267222ZM55.9153 30.4398C55.8301 30.4296 55.7431 30.4424 55.6644 30.4765L26.2977 43.7201L26.2255 43.7647C26.1577 43.815 26.1032 43.8824 26.0692 43.9604C26.024 44.0646 26.0175 44.1818 26.0495 44.2907C26.0816 44.3997 26.1507 44.4944 26.2452 44.5574C26.316 44.6045 26.3977 44.6315 26.4816 44.6368L26.5663 44.6349L54.5342 40.7052C54.6138 40.6973 54.6897 40.6697 54.7555 40.6257L54.8179 40.5765C54.8958 40.5035 54.9478 40.4066 54.965 40.3013L56.3375 30.9881C56.3494 30.903 56.3387 30.8154 56.306 30.7359C56.2732 30.6566 56.2187 30.5863 56.1504 30.5343C56.082 30.4827 56.0003 30.45 55.9153 30.4398ZM48.249 14.8952C48.1374 14.8952 48.0286 14.9314 47.9397 14.9989L3.76132 43.3326C3.70122 43.3591 3.6458 43.3968 3.60043 43.4443C3.55519 43.4917 3.52037 43.5486 3.49667 43.6098C3.47309 43.6708 3.46104 43.7361 3.46252 43.8015C3.46405 43.867 3.47814 43.932 3.50455 43.992C3.53106 44.052 3.57003 44.1062 3.6175 44.1515C3.66493 44.1968 3.72119 44.2329 3.78233 44.2566C3.81273 44.2684 3.84423 44.2771 3.87624 44.2829L3.97408 44.2907C4.03964 44.2892 4.10452 44.2739 4.16453 44.2474L56.6606 25.8462C56.7145 25.8265 56.7647 25.7977 56.8084 25.7608L56.8497 25.7214C56.8887 25.6795 56.9198 25.631 56.9417 25.5783L56.9601 25.5244C56.9757 25.4694 56.9815 25.4119 56.9771 25.355L56.9693 25.2985C56.9582 25.2425 56.9376 25.1888 56.9082 25.1402L56.876 25.093L48.559 14.9989C48.4701 14.9313 48.3607 14.8952 48.249 14.8952ZM81.2315 3.36429C81.1091 3.37337 80.9912 3.41864 80.8946 3.49431L68.5941 13.3191L68.5422 13.3572C68.4883 13.3932 68.4288 13.4212 68.3662 13.4386L68.3031 13.4524C68.2605 13.4595 68.217 13.4621 68.1738 13.4603L68.1088 13.4544L52.5234 11.112C52.4024 11.0873 52.2764 11.101 52.1636 11.1514C52.0508 11.2018 51.956 11.2863 51.8937 11.393C51.8313 11.5 51.8045 11.625 51.8162 11.7483L51.8319 11.8389C51.8545 11.9278 51.8973 12.0107 51.958 12.0806L61.8104 24.3017C61.8422 24.3736 61.859 24.4515 61.859 24.5302L61.8557 24.5893C61.8495 24.6477 61.8342 24.7048 61.8104 24.7587L59.4686 40.344C59.4357 40.4674 59.4435 40.5991 59.491 40.7177L59.533 40.8031C59.5822 40.8843 59.651 40.9528 59.7326 41.0027C59.8142 41.0524 59.9061 41.0816 60.0006 41.0881L60.0951 41.0867C60.2223 41.0749 60.3438 41.0226 60.4386 40.937L72.7654 31.0846C72.8373 31.0528 72.9159 31.0361 72.9946 31.036C73.0733 31.0361 73.1524 31.0528 73.2244 31.0846L88.8084 33.4271C88.9013 33.4436 88.9967 33.4378 89.0868 33.412L89.1748 33.3798C89.2606 33.3405 89.3366 33.2825 89.3961 33.2104L89.45 33.1335C89.498 33.0526 89.5269 32.962 89.5347 32.8689L89.5354 32.775C89.5289 32.6808 89.5006 32.5896 89.4539 32.5084L89.4014 32.4309L79.549 20.1297C79.5246 20.0723 79.5091 20.0112 79.5031 19.9491L79.5004 19.8867C79.5005 19.8243 79.5091 19.7622 79.5273 19.7028L79.549 19.645L81.8908 4.05907C81.9062 3.93746 81.8852 3.81408 81.8304 3.70445C81.7754 3.59477 81.6888 3.50366 81.5821 3.44309C81.4756 3.38276 81.3535 3.35531 81.2315 3.36429Z" fill="black"/>
<defs>
<linearGradient id="paint0_linear_1285_1749" x1="141.644" y1="2.1681" x2="-54.541" y2="72.7663" gradientUnits="userSpaceOnUse">
<stop offset="0.18" stop-color="#70FFC2"/>
<stop offset="0.37" stop-color="#89FDFC"/>
<stop offset="0.59" stop-color="#96E3FF"/>
<stop offset="0.91" stop-color="#D78FFF"/>
</linearGradient>
</defs>
</svg>
