<svg width="493" height="633" viewBox="0 0 493 633" fill="none" xmlns="http://www.w3.org/2000/svg">
<g opacity="0.25" filter="url(#filter0_f_62_2508)">
<path d="M64 80C64 71.1634 71.1634 64 80 64H413C421.837 64 429 71.1634 429 80V553C429 561.837 421.837 569 413 569H80C71.1635 569 64 561.837 64 553V80Z" fill="url(#paint0_linear_62_2508)"/>
<path d="M64 80C64 71.1634 71.1634 64 80 64H413C421.837 64 429 71.1634 429 80V553C429 561.837 421.837 569 413 569H80C71.1635 569 64 561.837 64 553V80Z" fill="url(#paint1_radial_62_2508)"/>
<path d="M64 80C64 71.1634 71.1634 64 80 64H413C421.837 64 429 71.1634 429 80V553C429 561.837 421.837 569 413 569H80C71.1635 569 64 561.837 64 553V80Z" fill="url(#paint2_radial_62_2508)"/>
<path d="M64 80C64 71.1634 71.1634 64 80 64H413C421.837 64 429 71.1634 429 80V553C429 561.837 421.837 569 413 569H80C71.1635 569 64 561.837 64 553V80Z" fill="url(#paint3_radial_62_2508)"/>
<path d="M64 80C64 71.1634 71.1634 64 80 64H413C421.837 64 429 71.1634 429 80V553C429 561.837 421.837 569 413 569H80C71.1635 569 64 561.837 64 553V80Z" fill="url(#paint4_radial_62_2508)"/>
</g>
<g opacity="0.4" filter="url(#filter1_f_62_2508)">
<path d="M64 80C64 71.1634 71.1634 64 80 64H413C421.837 64 429 71.1634 429 80V553C429 561.837 421.837 569 413 569H80C71.1635 569 64 561.837 64 553V80Z" fill="url(#paint5_linear_62_2508)"/>
<path d="M64 80C64 71.1634 71.1634 64 80 64H413C421.837 64 429 71.1634 429 80V553C429 561.837 421.837 569 413 569H80C71.1635 569 64 561.837 64 553V80Z" fill="url(#paint6_radial_62_2508)"/>
<path d="M64 80C64 71.1634 71.1634 64 80 64H413C421.837 64 429 71.1634 429 80V553C429 561.837 421.837 569 413 569H80C71.1635 569 64 561.837 64 553V80Z" fill="url(#paint7_radial_62_2508)"/>
<path d="M64 80C64 71.1634 71.1634 64 80 64H413C421.837 64 429 71.1634 429 80V553C429 561.837 421.837 569 413 569H80C71.1635 569 64 561.837 64 553V80Z" fill="url(#paint8_radial_62_2508)"/>
<path d="M64 80C64 71.1634 71.1634 64 80 64H413C421.837 64 429 71.1634 429 80V553C429 561.837 421.837 569 413 569H80C71.1635 569 64 561.837 64 553V80Z" fill="url(#paint9_radial_62_2508)"/>
</g>
<g opacity="0.6" filter="url(#filter2_f_62_2508)">
<path d="M64 80C64 71.1634 71.1634 64 80 64H413C421.837 64 429 71.1634 429 80V553C429 561.837 421.837 569 413 569H80C71.1635 569 64 561.837 64 553V80Z" fill="url(#paint10_linear_62_2508)"/>
<path d="M64 80C64 71.1634 71.1634 64 80 64H413C421.837 64 429 71.1634 429 80V553C429 561.837 421.837 569 413 569H80C71.1635 569 64 561.837 64 553V80Z" fill="url(#paint11_radial_62_2508)"/>
<path d="M64 80C64 71.1634 71.1634 64 80 64H413C421.837 64 429 71.1634 429 80V553C429 561.837 421.837 569 413 569H80C71.1635 569 64 561.837 64 553V80Z" fill="url(#paint12_radial_62_2508)"/>
<path d="M64 80C64 71.1634 71.1634 64 80 64H413C421.837 64 429 71.1634 429 80V553C429 561.837 421.837 569 413 569H80C71.1635 569 64 561.837 64 553V80Z" fill="url(#paint13_radial_62_2508)"/>
<path d="M64 80C64 71.1634 71.1634 64 80 64H413C421.837 64 429 71.1634 429 80V553C429 561.837 421.837 569 413 569H80C71.1635 569 64 561.837 64 553V80Z" fill="url(#paint14_radial_62_2508)"/>
</g>
<g opacity="0.85" filter="url(#filter3_f_62_2508)">
<path d="M64 80C64 71.1634 71.1634 64 80 64H413C421.837 64 429 71.1634 429 80V553C429 561.837 421.837 569 413 569H80C71.1635 569 64 561.837 64 553V80Z" fill="url(#paint15_linear_62_2508)"/>
<path d="M64 80C64 71.1634 71.1634 64 80 64H413C421.837 64 429 71.1634 429 80V553C429 561.837 421.837 569 413 569H80C71.1635 569 64 561.837 64 553V80Z" fill="url(#paint16_radial_62_2508)"/>
<path d="M64 80C64 71.1634 71.1634 64 80 64H413C421.837 64 429 71.1634 429 80V553C429 561.837 421.837 569 413 569H80C71.1635 569 64 561.837 64 553V80Z" fill="url(#paint17_radial_62_2508)"/>
<path d="M64 80C64 71.1634 71.1634 64 80 64H413C421.837 64 429 71.1634 429 80V553C429 561.837 421.837 569 413 569H80C71.1635 569 64 561.837 64 553V80Z" fill="url(#paint18_radial_62_2508)"/>
<path d="M64 80C64 71.1634 71.1634 64 80 64H413C421.837 64 429 71.1634 429 80V553C429 561.837 421.837 569 413 569H80C71.1635 569 64 561.837 64 553V80Z" fill="url(#paint19_radial_62_2508)"/>
</g>
<g opacity="0.391203" filter="url(#filter4_i_62_2508)">
<mask id="path-6-inside-1_62_2508" fill="white">
<path d="M64 80C64 71.1634 71.1634 64 80 64H413C421.837 64 429 71.1634 429 80V553C429 561.837 421.837 569 413 569H80C71.1635 569 64 561.837 64 553V80Z"/>
</mask>
<path d="M64 80C64 71.1634 71.1634 64 80 64H413C421.837 64 429 71.1634 429 80V553C429 561.837 421.837 569 413 569H80C71.1635 569 64 561.837 64 553V80Z" fill="white" fill-opacity="0.01"/>
<path d="M80 64V65H413V64V63H80V64ZM429 80H428V553H429H430V80H429ZM413 569V568H80V569V570H413V569ZM64 553H65V80H64H63V553H64ZM80 569V568C71.7157 568 65 561.284 65 553H64H63C63 562.389 70.6112 570 80 570V569ZM429 553H428C428 561.284 421.284 568 413 568V569V570C422.389 570 430 562.389 430 553H429ZM413 64V65C421.284 65 428 71.7157 428 80H429H430C430 70.6112 422.389 63 413 63V64ZM80 64V63C70.6112 63 63 70.6111 63 80H64H65C65 71.7157 71.7157 65 80 65V64Z" fill="white" fill-opacity="0.2" mask="url(#path-6-inside-1_62_2508)"/>
</g>
<defs>
<filter id="filter0_f_62_2508" x="0" y="0" width="493" height="633" filterUnits="userSpaceOnUse" color-interpolation-filters="sRGB">
<feFlood flood-opacity="0" result="BackgroundImageFix"/>
<feBlend mode="normal" in="SourceGraphic" in2="BackgroundImageFix" result="shape"/>
<feGaussianBlur stdDeviation="32" result="effect1_foregroundBlur_62_2508"/>
</filter>
<filter id="filter1_f_62_2508" x="24" y="24" width="445" height="585" filterUnits="userSpaceOnUse" color-interpolation-filters="sRGB">
<feFlood flood-opacity="0" result="BackgroundImageFix"/>
<feBlend mode="normal" in="SourceGraphic" in2="BackgroundImageFix" result="shape"/>
<feGaussianBlur stdDeviation="20" result="effect1_foregroundBlur_62_2508"/>
</filter>
<filter id="filter2_f_62_2508" x="40" y="40" width="413" height="553" filterUnits="userSpaceOnUse" color-interpolation-filters="sRGB">
<feFlood flood-opacity="0" result="BackgroundImageFix"/>
<feBlend mode="normal" in="SourceGraphic" in2="BackgroundImageFix" result="shape"/>
<feGaussianBlur stdDeviation="12" result="effect1_foregroundBlur_62_2508"/>
</filter>
<filter id="filter3_f_62_2508" x="56" y="56" width="381" height="521" filterUnits="userSpaceOnUse" color-interpolation-filters="sRGB">
<feFlood flood-opacity="0" result="BackgroundImageFix"/>
<feBlend mode="normal" in="SourceGraphic" in2="BackgroundImageFix" result="shape"/>
<feGaussianBlur stdDeviation="4" result="effect1_foregroundBlur_62_2508"/>
</filter>
<filter id="filter4_i_62_2508" x="64" y="64" width="365" height="505" filterUnits="userSpaceOnUse" color-interpolation-filters="sRGB">
<feFlood flood-opacity="0" result="BackgroundImageFix"/>
<feBlend mode="normal" in="SourceGraphic" in2="BackgroundImageFix" result="shape"/>
<feColorMatrix in="SourceAlpha" type="matrix" values="0 0 0 0 0 0 0 0 0 0 0 0 0 0 0 0 0 0 127 0" result="hardAlpha"/>
<feOffset/>
<feGaussianBlur stdDeviation="10"/>
<feComposite in2="hardAlpha" operator="arithmetic" k2="-1" k3="1"/>
<feColorMatrix type="matrix" values="0 0 0 0 1 0 0 0 0 1 0 0 0 0 1 0 0 0 0.1 0"/>
<feBlend mode="normal" in2="shape" result="effect1_innerShadow_62_2508"/>
</filter>
<linearGradient id="paint0_linear_62_2508" x1="64" y1="64" x2="543.506" y2="410.574" gradientUnits="userSpaceOnUse">
<stop stop-color="#E89D3F"/>
<stop offset="0.2" stop-color="#D4883D"/>
<stop offset="0.35" stop-color="#B8753A"/>
<stop offset="0.5" stop-color="#8B5A2B"/>
<stop offset="0.65" stop-color="#6B4423"/>
<stop offset="0.8" stop-color="#4A3018"/>
<stop offset="1" stop-color="#8B5A2B"/>
</linearGradient>
<radialGradient id="paint1_radial_62_2508" cx="0" cy="0" r="1" gradientUnits="userSpaceOnUse" gradientTransform="translate(429 569) rotate(-90) scale(636.12 600.249)">
<stop stop-color="#FFF9E1"/>
<stop offset="0.08" stop-color="#FFED4E"/>
<stop offset="0.15" stop-color="#FFD93D"/>
<stop offset="0.22" stop-color="#FFB84D"/>
<stop offset="0.28" stop-color="#FFA94D"/>
<stop offset="0.45" stop-opacity="0"/>
</radialGradient>
<radialGradient id="paint2_radial_62_2508" cx="0" cy="0" r="1" gradientUnits="userSpaceOnUse" gradientTransform="translate(64 569) rotate(-90) scale(636.12 600.249)">
<stop stop-color="#FFF9E1"/>
<stop offset="0.08" stop-color="#FFED4E"/>
<stop offset="0.15" stop-color="#FFD93D"/>
<stop offset="0.22" stop-color="#FFB84D"/>
<stop offset="0.28" stop-color="#FFA94D"/>
<stop offset="0.45" stop-opacity="0"/>
</radialGradient>
<radialGradient id="paint3_radial_62_2508" cx="0" cy="0" r="1" gradientUnits="userSpaceOnUse" gradientTransform="translate(429 64) rotate(-90) scale(636.12 600.249)">
<stop stop-color="#FFF9E1"/>
<stop offset="0.08" stop-color="#FFED4E"/>
<stop offset="0.15" stop-color="#FFD93D"/>
<stop offset="0.22" stop-color="#FFB84D"/>
<stop offset="0.28" stop-color="#FFA94D"/>
<stop offset="0.45" stop-opacity="0"/>
</radialGradient>
<radialGradient id="paint4_radial_62_2508" cx="0" cy="0" r="1" gradientUnits="userSpaceOnUse" gradientTransform="translate(64 64) rotate(-90) scale(636.12 600.249)">
<stop stop-color="#FFF9E1"/>
<stop offset="0.08" stop-color="#FFED4E"/>
<stop offset="0.15" stop-color="#FFD93D"/>
<stop offset="0.22" stop-color="#FFB84D"/>
<stop offset="0.28" stop-color="#FFA94D"/>
<stop offset="0.45" stop-opacity="0"/>
</radialGradient>
<linearGradient id="paint5_linear_62_2508" x1="64" y1="64" x2="543.506" y2="410.574" gradientUnits="userSpaceOnUse">
<stop stop-color="#E89D3F"/>
<stop offset="0.2" stop-color="#D4883D"/>
<stop offset="0.35" stop-color="#B8753A"/>
<stop offset="0.5" stop-color="#8B5A2B"/>
<stop offset="0.65" stop-color="#6B4423"/>
<stop offset="0.8" stop-color="#4A3018"/>
<stop offset="1" stop-color="#8B5A2B"/>
</linearGradient>
<radialGradient id="paint6_radial_62_2508" cx="0" cy="0" r="1" gradientUnits="userSpaceOnUse" gradientTransform="translate(429 569) rotate(-90) scale(634.362 603.109)">
<stop stop-color="#FFF9E1"/>
<stop offset="0.08" stop-color="#FFED4E"/>
<stop offset="0.15" stop-color="#FFD93D"/>
<stop offset="0.22" stop-color="#FFB84D"/>
<stop offset="0.28" stop-color="#FFA94D"/>
<stop offset="0.45" stop-opacity="0"/>
</radialGradient>
<radialGradient id="paint7_radial_62_2508" cx="0" cy="0" r="1" gradientUnits="userSpaceOnUse" gradientTransform="translate(64 569) rotate(-90) scale(634.362 603.109)">
<stop stop-color="#FFF9E1"/>
<stop offset="0.08" stop-color="#FFED4E"/>
<stop offset="0.15" stop-color="#FFD93D"/>
<stop offset="0.22" stop-color="#FFB84D"/>
<stop offset="0.28" stop-color="#FFA94D"/>
<stop offset="0.45" stop-opacity="0"/>
</radialGradient>
<radialGradient id="paint8_radial_62_2508" cx="0" cy="0" r="1" gradientUnits="userSpaceOnUse" gradientTransform="translate(429 64) rotate(-90) scale(634.362 603.109)">
<stop stop-color="#FFF9E1"/>
<stop offset="0.08" stop-color="#FFED4E"/>
<stop offset="0.15" stop-color="#FFD93D"/>
<stop offset="0.22" stop-color="#FFB84D"/>
<stop offset="0.28" stop-color="#FFA94D"/>
<stop offset="0.45" stop-opacity="0"/>
</radialGradient>
<radialGradient id="paint9_radial_62_2508" cx="0" cy="0" r="1" gradientUnits="userSpaceOnUse" gradientTransform="translate(64 64) rotate(-90) scale(634.362 603.109)">
<stop stop-color="#FFF9E1"/>
<stop offset="0.08" stop-color="#FFED4E"/>
<stop offset="0.15" stop-color="#FFD93D"/>
<stop offset="0.22" stop-color="#FFB84D"/>
<stop offset="0.28" stop-color="#FFA94D"/>
<stop offset="0.45" stop-opacity="0"/>
</radialGradient>
<linearGradient id="paint10_linear_62_2508" x1="64" y1="64" x2="543.506" y2="410.574" gradientUnits="userSpaceOnUse">
<stop stop-color="#E89D3F"/>
<stop offset="0.2" stop-color="#D4883D"/>
<stop offset="0.35" stop-color="#B8753A"/>
<stop offset="0.5" stop-color="#8B5A2B"/>
<stop offset="0.65" stop-color="#6B4423"/>
<stop offset="0.8" stop-color="#4A3018"/>
<stop offset="1" stop-color="#8B5A2B"/>
</linearGradient>
<radialGradient id="paint11_radial_62_2508" cx="0" cy="0" r="1" gradientUnits="userSpaceOnUse" gradientTransform="translate(429 569) rotate(-90) scale(632.836 605.644)">
<stop stop-color="#FFF9E1"/>
<stop offset="0.08" stop-color="#FFED4E"/>
<stop offset="0.15" stop-color="#FFD93D"/>
<stop offset="0.22" stop-color="#FFB84D"/>
<stop offset="0.28" stop-color="#FFA94D"/>
<stop offset="0.45" stop-opacity="0"/>
</radialGradient>
<radialGradient id="paint12_radial_62_2508" cx="0" cy="0" r="1" gradientUnits="userSpaceOnUse" gradientTransform="translate(64 569) rotate(-90) scale(632.836 605.644)">
<stop stop-color="#FFF9E1"/>
<stop offset="0.08" stop-color="#FFED4E"/>
<stop offset="0.15" stop-color="#FFD93D"/>
<stop offset="0.22" stop-color="#FFB84D"/>
<stop offset="0.28" stop-color="#FFA94D"/>
<stop offset="0.45" stop-opacity="0"/>
</radialGradient>
<radialGradient id="paint13_radial_62_2508" cx="0" cy="0" r="1" gradientUnits="userSpaceOnUse" gradientTransform="translate(429 64) rotate(-90) scale(632.836 605.644)">
<stop stop-color="#FFF9E1"/>
<stop offset="0.08" stop-color="#FFED4E"/>
<stop offset="0.15" stop-color="#FFD93D"/>
<stop offset="0.22" stop-color="#FFB84D"/>
<stop offset="0.28" stop-color="#FFA94D"/>
<stop offset="0.45" stop-opacity="0"/>
</radialGradient>
<radialGradient id="paint14_radial_62_2508" cx="0" cy="0" r="1" gradientUnits="userSpaceOnUse" gradientTransform="translate(64 64) rotate(-90) scale(632.836 605.644)">
<stop stop-color="#FFF9E1"/>
<stop offset="0.08" stop-color="#FFED4E"/>
<stop offset="0.15" stop-color="#FFD93D"/>
<stop offset="0.22" stop-color="#FFB84D"/>
<stop offset="0.28" stop-color="#FFA94D"/>
<stop offset="0.45" stop-opacity="0"/>
</radialGradient>
<linearGradient id="paint15_linear_62_2508" x1="64" y1="64" x2="543.506" y2="410.574" gradientUnits="userSpaceOnUse">
<stop stop-color="#E89D3F"/>
<stop offset="0.2" stop-color="#D4883D"/>
<stop offset="0.35" stop-color="#B8753A"/>
<stop offset="0.5" stop-color="#8B5A2B"/>
<stop offset="0.65" stop-color="#6B4423"/>
<stop offset="0.8" stop-color="#4A3018"/>
<stop offset="1" stop-color="#8B5A2B"/>
</linearGradient>
<radialGradient id="paint16_radial_62_2508" cx="0" cy="0" r="1" gradientUnits="userSpaceOnUse" gradientTransform="translate(429 569) rotate(-90) scale(631.893 607.236)">
<stop stop-color="#FFF9E1"/>
<stop offset="0.08" stop-color="#FFED4E"/>
<stop offset="0.15" stop-color="#FFD93D"/>
<stop offset="0.22" stop-color="#FFB84D"/>
<stop offset="0.28" stop-color="#FFA94D"/>
<stop offset="0.45" stop-opacity="0"/>
</radialGradient>
<radialGradient id="paint17_radial_62_2508" cx="0" cy="0" r="1" gradientUnits="userSpaceOnUse" gradientTransform="translate(64 569) rotate(-90) scale(631.893 607.236)">
<stop stop-color="#FFF9E1"/>
<stop offset="0.08" stop-color="#FFED4E"/>
<stop offset="0.15" stop-color="#FFD93D"/>
<stop offset="0.22" stop-color="#FFB84D"/>
<stop offset="0.28" stop-color="#FFA94D"/>
<stop offset="0.45" stop-opacity="0"/>
</radialGradient>
<radialGradient id="paint18_radial_62_2508" cx="0" cy="0" r="1" gradientUnits="userSpaceOnUse" gradientTransform="translate(429 64) rotate(-90) scale(631.893 607.236)">
<stop stop-color="#FFF9E1"/>
<stop offset="0.08" stop-color="#FFED4E"/>
<stop offset="0.15" stop-color="#FFD93D"/>
<stop offset="0.22" stop-color="#FFB84D"/>
<stop offset="0.28" stop-color="#FFA94D"/>
<stop offset="0.45" stop-opacity="0"/>
</radialGradient>
<radialGradient id="paint19_radial_62_2508" cx="0" cy="0" r="1" gradientUnits="userSpaceOnUse" gradientTransform="translate(64 64) rotate(-90) scale(631.893 607.236)">
<stop stop-color="#FFF9E1"/>
<stop offset="0.08" stop-color="#FFED4E"/>
<stop offset="0.15" stop-color="#FFD93D"/>
<stop offset="0.22" stop-color="#FFB84D"/>
<stop offset="0.28" stop-color="#FFA94D"/>
<stop offset="0.45" stop-opacity="0"/>
</radialGradient>
</defs>
</svg>
