<svg width="410" height="173" viewBox="0 0 410 173" fill="none" xmlns="http://www.w3.org/2000/svg">
<path d="M363.692 0.963621C364.927 0.792016 365.781 0.941389 366.992 1.41944C368.186 1.89087 369.18 2.57851 369.863 3.26558C371.011 4.42125 371.479 5.17769 371.479 6.76061C371.479 8.40586 371.097 10.3291 370.47 13.5402C369.727 17.3432 369.254 19.3183 370.594 20.9295C374.259 25.335 377.246 28.4447 380.09 34.4538C385.319 45.5036 397.412 75.2117 401.87 87.5275C407.738 107.503 412.228 121.414 393.837 125.931C377.893 129.847 304.906 138.634 267.202 143.383C215.47 149.899 144.061 158.635 109.848 162.674C91.7938 164.522 69.0104 163.619 51.2267 158.939C51.2196 160.027 50.9262 161.095 50.3764 162.034C49.8265 162.974 49.038 163.752 48.0925 164.291C47.147 164.829 46.0765 165.11 44.9884 165.105C43.8999 165.099 42.8315 164.808 41.8914 164.259C40.2625 162.831 38.8511 161.171 37.7036 159.333L33.665 153.839L33.4677 153.594H33.1466L23.7873 152.56C22.3481 152.659 20.9161 152.28 19.7137 151.483C18.5115 150.686 17.6048 149.515 17.1364 148.151C16.6951 146.767 16.7487 145.272 17.2879 143.924C17.8272 142.577 18.8194 141.458 20.0926 140.761L27.6539 135.17L28.0977 134.825L27.9005 134.332C17.5551 109.479 -9.93187 76.4479 21.9159 55.9304C23.7645 54.6734 30.8815 50.3148 32.6547 49.0834L60.5127 31.4712V43.0976L61.4484 42.4818L63.9115 40.8317L103.321 14.8547V45.414H103.937C149.406 40.6109 256.847 29.7237 300.839 24.7974C310.79 23.4919 321.972 15.8064 330.815 11.1757L334.436 9.20568C338.081 6.91534 342.553 8.36354 346.186 9.13833C347.282 9.37208 348.171 9.6603 349.364 9.6603C351.076 9.65996 352.962 8.01258 353.942 7.23567C354.924 6.45846 359.024 3.17363 360.223 2.33469C361.422 1.49615 362.469 1.1334 363.692 0.963621Z" fill="black"/>
<path d="M364.401 0.089535C365.892 0.144104 367.223 0.462049 368.743 1.36319C370.172 2.2108 370.944 3.18268 371.479 3.92012C372.575 5.43022 372.464 6.79092 372.174 8.68639C371.78 10.5337 371.288 13.6123 370.919 15.6813C370.746 16.6459 370.55 17.9924 370.594 18.7289C370.637 19.4522 371.006 20.2349 371.586 20.9298C375.681 25.8345 379.136 30.1639 381.252 34.7512C383.368 39.3386 398.554 73.1664 403.313 86.9409C410.286 107.121 418.335 125.992 387.79 130.867C357.244 135.742 304.944 143.261 268.237 148.334C221.918 154.735 159.788 163.154 109.849 169.199C81.3011 172.655 65.3384 169.715 55.3003 167.37C54.0679 168.865 52.5278 170.081 50.7794 170.931C48.7723 171.907 46.5543 172.37 44.3245 172.28C42.0948 172.191 39.9218 171.551 37.9996 170.418C35.4856 168.597 33.3587 166.294 31.7431 163.644L29.369 160.426L22.9009 159.677C21.8659 159.599 20.8372 159.451 19.822 159.235C17.3651 158.661 15.1202 157.404 13.3455 155.611C11.5709 153.818 10.3385 151.56 9.79036 149.097C9.24223 146.635 9.40083 144.067 10.2474 141.69C11.094 139.313 12.5944 137.224 14.5759 135.662L15.2157 135.17L15.6836 134.825L19.1533 132.297C15.2995 123.814 10.0848 115.351 6.27489 106.622C-4.56265 83.0253 -2.41999 61.5966 21.8414 48.1973C31.8661 41.9411 55.9797 27.2117 66.0295 21.103V32.8762L101.573 10.2896L108.1 6.12706C108.1 10.0326 107.621 31.3259 107.446 40.9571C138.563 38.2671 247.326 29.0313 267.808 26.9409L284.238 25.4135C298.53 23.9867 306.406 24.1574 315.864 18.2707L330.347 10.3629L333.968 8.39294C338.894 5.38831 344.299 8.79761 349.276 8.84876C350.587 8.86222 351.892 7.84798 353.475 6.60213C355.057 5.35616 358.541 2.50882 360.102 1.49669C361.662 0.484695 362.869 0.0334908 364.401 0.089535ZM366.992 1.41972C365.781 0.941608 364.927 0.792249 363.692 0.963894C362.469 1.13369 361.422 1.49627 360.223 2.33497C359.023 3.17399 354.923 6.45918 353.943 7.23595C352.962 8.01286 351.076 9.66029 349.364 9.66058C348.171 9.66058 347.283 9.37236 346.186 9.13861C342.553 8.36379 338.081 6.91534 334.436 9.20596L330.815 11.176C321.972 15.8066 310.79 23.4922 300.839 24.7977C256.847 29.7239 149.406 40.6112 103.937 45.4143H103.321V14.855L63.9116 40.832L61.4485 42.4821L60.5128 43.0979V31.4714L32.6548 49.0837C30.8815 50.3151 23.7641 54.674 21.9159 55.9306C-9.93198 76.4483 17.5553 109.479 27.9005 134.332L28.0978 134.825L27.654 135.17L20.0926 140.761C18.8193 141.459 17.8272 142.577 17.288 143.925C16.7487 145.273 16.6951 146.768 17.1364 148.151C17.6048 149.515 18.5115 150.686 19.7138 151.483C20.9162 152.281 22.3481 152.66 23.7873 152.56L33.1467 153.594H33.4678L33.665 153.84L37.7037 159.333C38.8512 161.171 40.2625 162.831 41.8915 164.26C42.8316 164.808 43.9 165.1 44.9884 165.105C46.0766 165.111 47.1471 164.83 48.0926 164.291C49.0382 163.752 49.8265 162.974 50.3765 162.035C50.9264 161.095 51.2196 160.027 51.2268 158.939C69.0105 163.619 91.7939 164.522 109.849 162.675C144.061 158.635 215.47 149.9 267.202 143.383C304.906 138.634 377.894 129.847 393.837 125.931C412.228 121.414 407.738 107.503 401.87 87.5278C397.412 75.2123 385.32 45.504 380.09 34.4541C377.246 28.4447 374.259 25.3354 370.594 20.9298C369.254 19.3185 369.727 17.3437 370.47 13.5405C371.097 10.329 371.479 8.40622 371.479 6.76088C371.479 5.1776 371.011 4.42165 369.863 3.26585C369.18 2.57871 368.186 1.89119 366.992 1.41972Z" fill="white"/>
<path d="M337.589 15.1202C337.514 15.0347 337.469 14.9281 337.458 14.8153C337.447 14.7025 337.472 14.5892 337.529 14.4913C337.586 14.3935 337.673 14.3159 337.776 14.2697C337.88 14.2234 337.995 14.2108 338.106 14.2335L352.368 16.3764C352.446 16.388 352.526 16.383 352.602 16.3618C352.679 16.3406 352.75 16.3036 352.811 16.2532L364.067 7.26285C364.156 7.1936 364.263 7.15217 364.375 7.14386C364.487 7.13554 364.599 7.16074 364.696 7.21617C364.794 7.2716 364.873 7.35479 364.923 7.4552C364.973 7.55562 364.993 7.66868 364.979 7.78008L362.836 22.0416C362.806 22.1117 362.791 22.187 362.791 22.2632C362.791 22.3394 362.806 22.4148 362.836 22.4849L371.851 33.7414C371.923 33.8314 371.965 33.9411 371.973 34.056C371.981 34.1709 371.954 34.2855 371.895 34.3845C371.836 34.4835 371.748 34.5622 371.644 34.6102C371.539 34.6581 371.422 34.6729 371.309 34.6527L357.048 32.5098C356.982 32.4806 356.91 32.4655 356.838 32.4655C356.766 32.4655 356.695 32.4806 356.629 32.5098L345.348 41.5248C345.261 41.6032 345.151 41.6513 345.035 41.6622C344.918 41.673 344.802 41.646 344.702 41.585C344.602 41.5241 344.525 41.4325 344.482 41.324C344.438 41.2155 344.431 41.0959 344.461 40.9829L346.604 26.7215C346.633 26.6555 346.648 26.5842 346.648 26.5121C346.648 26.44 346.633 26.3687 346.604 26.3028L337.589 15.1202ZM338.796 33.4705C338.807 33.3924 338.797 33.3129 338.767 33.2401C338.737 33.1672 338.688 33.1037 338.625 33.0561C338.562 33.0084 338.488 32.9784 338.41 32.9689C338.332 32.9595 338.252 32.9711 338.18 33.0025L311.307 45.121C311.214 45.1674 311.141 45.2452 311.099 45.3406C311.057 45.436 311.051 45.543 311.08 45.6429C311.109 45.7427 311.173 45.829 311.259 45.8867C311.346 45.9444 311.45 45.9698 311.554 45.9584L337.145 42.3623C337.243 42.3527 337.334 42.3113 337.405 42.2445C337.476 42.1777 337.524 42.0892 337.54 41.9928L338.796 33.4705ZM96.6958 28.7412L74.5277 42.8795V90.7872C74.5277 97.881 69.4291 101.329 63.493 101.329C60.5808 101.424 57.7478 100.372 55.6018 98.4015C53.4559 96.4306 52.168 93.6969 52.0148 90.7872V45.7122L31.7927 58.5203L32.0143 69.9492L32.3345 87.3388C32.2904 91.5493 33.0513 95.7295 34.576 99.6544C34.9315 100.566 35.3428 101.454 35.8076 102.315C37.1377 104.871 38.8671 107.2 40.9308 109.211C42.1476 110.373 43.4759 111.413 44.8964 112.315C46.8216 113.556 48.8788 114.581 51.0298 115.369C54.1971 116.534 57.515 117.239 60.8823 117.463H62.6556H64.503C68.9823 117.573 73.4451 116.88 77.6806 115.418C81.4949 114.07 85.0029 111.977 88.0009 109.261C89.454 107.871 90.7509 106.326 91.8682 104.655C92.9069 103.107 93.7818 101.456 94.4789 99.7283C96.0543 95.8157 96.8413 91.6304 96.7944 87.4127L96.6958 28.7412ZM268.794 54.6779L339.091 28.7659C339.157 28.7419 339.216 28.7027 339.264 28.6515C339.312 28.6003 339.346 28.5385 339.366 28.4712C339.385 28.404 339.388 28.3331 339.374 28.2644C339.361 28.1958 339.331 28.1313 339.288 28.0762L331.677 18.8395C331.596 18.7776 331.496 18.7441 331.394 18.7441C331.292 18.7441 331.192 18.7776 331.111 18.8395L268.424 53.8404C268.369 53.8647 268.32 53.8996 268.278 53.943C268.237 53.9865 268.204 54.0376 268.183 54.0937C268.161 54.1497 268.15 54.2095 268.152 54.2696C268.153 54.3296 268.166 54.3889 268.19 54.4439C268.215 54.4989 268.249 54.5486 268.293 54.5901C268.336 54.6316 268.388 54.6641 268.444 54.6858C268.5 54.7076 268.56 54.7181 268.62 54.7167C268.68 54.7154 268.739 54.7021 268.794 54.6779ZM57.9757 136.232L44.5764 134.729C44.5038 134.727 44.4325 134.709 44.3684 134.674C44.3042 134.64 44.249 134.591 44.2069 134.532L36.2018 123.67C36.1394 123.583 36.0516 123.518 35.9507 123.483C35.8498 123.448 35.7408 123.446 35.6383 123.475C35.5358 123.505 35.4449 123.566 35.3782 123.649C35.3115 123.732 35.2723 123.834 35.2658 123.941L33.7633 137.316C33.7596 137.388 33.7399 137.458 33.7059 137.522C33.6718 137.586 33.624 137.642 33.5661 137.685L22.7039 145.69C22.6183 145.751 22.553 145.837 22.5172 145.935C22.4814 146.034 22.4766 146.142 22.5034 146.243C22.5301 146.345 22.5871 146.436 22.667 146.504C22.7468 146.573 22.8456 146.615 22.9502 146.626L36.3494 148.129C36.4961 148.153 36.6281 148.233 36.7189 148.35L44.7241 159.188C44.785 159.274 44.8706 159.339 44.9694 159.375C45.0682 159.41 45.1757 159.415 45.2773 159.388C45.379 159.362 45.4699 159.305 45.5383 159.225C45.6067 159.145 45.6492 159.046 45.6601 158.942L47.1625 145.542C47.1883 145.402 47.2571 145.273 47.3595 145.173L58.2219 137.192C58.3045 137.127 58.3665 137.04 58.4002 136.94C58.4339 136.841 58.438 136.734 58.4119 136.632C58.3858 136.53 58.3306 136.438 58.2532 136.367C58.1757 136.296 58.0793 136.249 57.9757 136.232ZM71.6707 148.547H71.5228L68.1977 144.04C68.179 144.004 68.1506 143.973 68.1159 143.952C68.0811 143.931 68.0411 143.92 68.0004 143.92C67.9597 143.92 67.92 143.931 67.8853 143.952C67.8505 143.973 67.8221 144.004 67.8035 144.04L67.1877 149.606C67.2007 149.629 67.2075 149.654 67.2075 149.68C67.2075 149.706 67.2007 149.732 67.1877 149.754L62.6556 153.079C62.6208 153.107 62.5953 153.145 62.5823 153.188C62.5693 153.23 62.5693 153.276 62.5826 153.319C62.5959 153.361 62.6219 153.399 62.6568 153.426C62.6918 153.454 62.7341 153.47 62.7786 153.474L68.3453 154.114H68.4932L71.8184 158.621C71.837 158.658 71.8654 158.688 71.9001 158.709C71.9349 158.73 71.9746 158.742 72.0153 158.742C72.056 158.742 72.096 158.73 72.1308 158.709C72.1655 158.688 72.1939 158.658 72.2125 158.621L72.8283 153.055C72.8174 153.032 72.8115 153.006 72.8115 152.981C72.8115 152.955 72.8174 152.93 72.8283 152.907L77.3357 149.582C77.3719 149.563 77.4023 149.535 77.4235 149.5C77.4447 149.465 77.456 149.425 77.456 149.385C77.456 149.344 77.4447 149.304 77.4235 149.269C77.4023 149.235 77.3719 149.206 77.3357 149.188L71.6707 148.547ZM339.978 90.27C339.912 95.3398 338.413 100.287 335.654 104.541C332.895 108.795 328.989 112.182 324.387 114.31C320.004 116.654 315.063 117.753 310.1 117.488C305.137 117.223 300.341 115.605 296.233 112.807C292.631 110.627 289.598 107.624 287.381 104.044C285.163 100.465 283.826 96.4114 283.477 92.2155C283.129 88.0195 283.779 83.8008 285.376 79.9048C286.972 76.0088 289.469 72.5464 292.662 69.8015C297.34 65.5733 303.299 63.0335 309.59 62.5871C315.88 62.1407 322.138 63.8133 327.367 67.3383C331.233 69.7897 334.416 73.1809 336.617 77.1953C338.818 81.2097 339.966 85.7164 339.953 90.2945L339.978 90.27ZM324.066 88.9891C324.066 85.7032 322.761 82.5519 320.438 80.2284C318.114 77.905 314.963 76.5996 311.677 76.5996C308.391 76.5996 305.24 77.905 302.916 80.2284C300.593 82.5519 299.287 85.7032 299.287 88.9891C299.211 90.6677 299.48 92.3442 300.076 93.9153C300.673 95.4749 301.578 96.8988 302.736 98.1027C303.889 99.3127 305.281 100.269 306.825 100.911C308.356 101.576 310.007 101.92 311.677 101.92C313.346 101.92 314.998 101.576 316.529 100.911C318.072 100.269 319.465 99.3127 320.618 98.1027C321.776 96.8988 322.68 95.4749 323.278 93.9153C323.874 92.3442 324.142 90.6677 324.066 88.9891ZM159.407 82.117C160.405 87.2332 160.405 92.4939 159.407 97.61C158.804 101.975 156.862 106.046 153.849 109.262C150.836 112.478 146.9 114.68 142.584 115.566C133.618 117.537 125.908 115.418 120.81 106.625V146.454L104.627 148.449V58.7667L120.908 66.0082V73.9148C125.835 64.7028 132.657 61.5992 141.598 63.5205C151.574 65.688 157.461 72.4862 159.382 82.1416L159.407 82.117ZM146.771 88.9891C146.606 87.2692 146.08 85.6034 145.229 84.0998C144.377 82.5963 143.219 81.2888 141.829 80.2622C140.439 79.2356 138.849 78.513 137.162 78.1412C135.474 77.7695 133.727 77.757 132.035 78.1046C130.342 78.4521 128.742 79.1519 127.337 80.1585C125.933 81.1651 124.756 82.456 123.883 83.9472C123.01 85.4384 122.461 87.0965 122.271 88.8139C122.081 90.5312 122.255 92.2694 122.78 93.9153C123.378 95.4749 124.283 96.8988 125.44 98.1027C126.589 99.3067 127.972 100.262 129.505 100.911C131.039 101.578 132.693 101.926 134.366 101.933C136.039 101.94 137.696 101.606 139.236 100.951C140.775 100.296 142.165 99.3349 143.321 98.1253C144.477 96.9156 145.374 95.4832 145.958 93.9153C146.575 92.3494 146.852 90.6702 146.771 88.9891ZM370.397 78.5455H386.26L381.334 63.9638H370.792C370.792 60.3676 370.792 47.2146 371.038 43.9141L353.919 54.4562L353.673 62.8554L340.569 64.284L345.495 78.5701H353.895C353.895 78.5701 353.895 98.6877 353.895 101.847C353.895 105.005 354.032 107.614 356.01 110.375C357.329 112.217 358.627 113.093 360.348 114.014C362.09 114.916 364.028 115.373 365.989 115.344C371.629 115.591 375.004 115.591 380.767 115.591C380.767 115.591 384.659 115.591 384.758 115.591L380.004 101.847H374.035C372.048 101.847 370.521 101.337 370.521 98.9893C370.521 94.8814 370.397 84.966 370.397 78.5455ZM275.962 80.5653C275.268 77.0213 273.703 73.7059 271.406 70.9191C269.11 68.1323 266.155 65.9619 262.809 64.6042C260.455 63.5768 257.912 63.0568 255.344 63.078C252.777 63.0992 250.243 63.6613 247.907 64.7274C246.096 65.8152 244.439 67.1406 242.98 68.6684C241.448 70.2087 240.19 71.9998 239.261 73.9641V37.4114L222.955 47.7073C222.955 71.8458 222.955 91.6246 222.955 115.64H239.384V90.27C239.288 87.6129 239.946 84.9827 241.281 82.6835C242.281 80.8442 243.806 79.3442 245.661 78.3748C247.517 77.4053 249.619 77.0103 251.7 77.24C253.795 77.4377 255.771 78.3008 257.34 79.7032C258.922 81.0915 260.003 82.9607 260.419 85.0235C260.907 86.905 261.139 88.8437 261.109 90.7872V115.714H277.193V114.655C277.193 106.453 277.39 98.7431 277.193 90.5163C277.112 87.1734 276.691 83.8474 275.937 80.5898L275.962 80.5653ZM208.226 87.462C204.383 86.0334 200.319 84.9989 196.378 83.9397C192.437 82.8806 188.989 81.9446 185.294 80.8608C184.161 80.5406 182.831 79.9002 182.831 78.2007C182.831 75.7376 185.885 74.5799 186.329 74.4567C188.949 73.5708 191.788 73.5708 194.408 74.4567C195.879 74.8676 197.227 75.6324 198.335 76.6843C199.443 77.7362 200.276 79.0433 200.763 80.4914C200.763 80.4914 210.319 77.2154 214.901 75.5651C214.177 72.9157 212.766 70.5044 210.811 68.5754C208.856 66.6463 206.426 65.2678 203.767 64.5796C197.337 62.6075 190.558 62.0447 183.89 62.9293C180.089 63.2297 176.398 64.3561 173.077 66.2299C171.409 67.2803 169.967 68.6539 168.838 70.2698C167.708 71.8857 166.914 73.7113 166.501 75.639C166.109 77.5735 166.109 79.5668 166.501 81.5013C166.949 84.1778 168.173 86.664 170.02 88.6517C171.868 90.6395 174.258 92.0414 176.895 92.6838C182.511 94.1863 187.092 95.2701 192.462 96.7972C194.309 97.3145 196.354 98.0287 198.275 98.7677C198.857 98.9939 199.359 99.3893 199.714 99.9029C200.07 100.417 200.263 101.025 200.27 101.65C200.24 102.296 200.007 102.916 199.605 103.423C198.683 104.461 197.393 105.097 196.009 105.196C193.471 105.467 190.911 105.467 188.373 105.196C184.481 104.778 182.191 103.645 182.733 99.753L165.983 92.6838C164.966 97.648 165.49 102.805 167.486 107.462C168.997 109.95 171.184 111.957 173.792 113.251C178.708 115.797 184.167 117.115 189.703 117.093C196.101 117.651 202.538 116.627 208.447 114.113C211.069 113.01 213.286 111.123 214.794 108.711C216.302 106.299 217.028 103.48 216.871 100.64C217.067 97.8004 216.328 94.9751 214.767 92.5955C213.206 90.2159 210.908 88.4129 208.226 87.462Z" fill="white"/>
</svg>
