<svg xmlns="http://www.w3.org/2000/svg" width="86" height="86" viewBox="0 0 86 86" fill="none">
<path d="M43.195 85.1205C19.7715 85.1205 0.785156 66.1341 0.785156 42.7106C0.785156 19.2871 19.7715 0.300781 43.195 0.300781C66.6185 0.300781 85.6048 19.2871 85.6048 42.7106C85.6048 66.1341 66.6185 85.1205 43.195 85.1205ZM56.4534 26.4226L58.6004 17.8319L51.7194 16.1197L50.015 22.945C48.8932 22.5673 47.7426 22.2809 46.5745 22.0888L48.2815 15.2635L41.4005 13.5539L39.2535 22.1445C31.3467 23.5811 24.6513 29.3992 22.6077 37.579C20.564 45.7588 23.7368 54.0287 30.04 58.996L27.893 67.5893L34.774 69.3016L36.4783 62.4763C37.6002 62.854 38.7508 63.1403 39.9188 63.3324L38.2118 70.1577L45.0928 71.8674L47.2398 63.2767C50.0203 62.7781 52.6725 61.7272 55.0399 60.1862C57.4073 58.6451 59.4417 56.6451 61.023 54.3044L53.4767 52.4278C51.7341 54.1886 49.5622 55.4644 47.1757 56.1291C44.7891 56.7938 42.2705 56.8245 39.8685 56.2182C32.2718 54.3309 27.6226 46.7502 29.486 39.2887C31.3494 31.8272 39.0256 27.3106 46.6249 29.2004C49.0296 29.7881 51.2389 30.9943 53.0336 32.6993C54.8283 34.4043 56.1461 36.5488 56.8563 38.9202L64.3999 40.7969C64.1055 37.9908 63.2504 35.2725 61.8854 32.8033C60.5203 30.3341 58.6731 28.1642 56.4534 26.4226Z" fill="#F6CADF"/>
</svg>