<svg xmlns="http://www.w3.org/2000/svg" width="19" height="16" viewBox="0 0 19 16" fill="none">
<path d="M0.29368 6.66671C2.44774 5.77351 4.75705 5.22983 7.08576 5.13274C7.00814 5.90943 7.04695 6.68613 7.2022 7.4434C7.22161 7.57932 7.27982 7.69583 7.29923 7.83175C7.16339 7.79291 7.00814 7.79291 6.8723 7.81233C6.36774 7.90942 5.97962 8.31718 5.82438 8.93854C5.80497 9.03562 5.82438 9.13271 5.902 9.19096C5.96022 9.26863 6.05725 9.28805 6.15428 9.26863L7.76497 8.97737C8.34715 10.0453 9.23983 10.9191 10.3266 11.424C10.3072 11.7152 10.2683 11.9871 10.2101 12.2783C9.822 14.1618 8.34715 15.5987 6.44537 15.9288C4.54358 16.2589 2.68061 15.4239 1.6521 13.7929C1.20576 13.0744 0.914671 12.2977 0.759424 11.4628L0.00259209 7.17156C-0.0168152 6.95797 0.0802155 6.74438 0.29368 6.66671ZM4.19428 13.2686L7.66794 12.6667C7.862 12.6278 7.99784 12.4337 7.92022 12.2395C7.57091 11.3074 6.60061 10.7055 5.5721 10.8997C4.54358 11.0939 3.82556 11.9676 3.82556 12.9773C3.80616 13.1521 3.98081 13.3074 4.19428 13.2686ZM2.29249 9.81231C2.35071 9.88998 2.44774 9.9094 2.54477 9.88998L4.42715 9.55989C4.52418 9.54047 4.6018 9.48222 4.64061 9.40455C4.67943 9.32688 4.67943 9.21038 4.62121 9.13271C4.29131 8.60844 3.76735 8.3366 3.26279 8.43369C2.75824 8.53077 2.37012 8.93854 2.21487 9.55989C2.21487 9.65698 2.23428 9.75406 2.29249 9.81231Z" fill="#FC84D4"/>
<path d="M8.23071 7.2104C8.05606 6.39488 8.03665 5.54051 8.1919 4.72499L8.94873 0.414344C8.98754 0.200753 9.16219 0.0454146 9.37566 0.0259973C12.3642 -0.129341 15.3915 0.414343 18.1471 1.57938C18.3412 1.65705 18.4576 1.87064 18.4188 2.08423L17.662 6.39488C17.5068 7.22982 17.2157 8.00651 16.7693 8.72495C15.7602 10.356 13.8778 11.2104 11.9761 10.8609C10.0937 10.5308 8.61883 9.09388 8.23071 7.2104ZM16.1483 4.7444C16.2066 4.66674 16.2454 4.58907 16.226 4.49198C16.0901 3.89004 15.702 3.46286 15.1974 3.36578C14.6929 3.26869 14.1883 3.54053 13.839 4.0648C13.7808 4.14247 13.7808 4.23955 13.8196 4.33664C13.8584 4.43373 13.9361 4.49198 14.0331 4.5114L15.9155 4.84149C15.9737 4.84149 16.0707 4.80266 16.1483 4.7444ZM12.4418 8.35603C13.4703 8.53078 14.4406 7.94826 14.7899 7.01623C14.8675 6.82206 14.7317 6.62788 14.5376 6.58905L11.064 5.98711C10.8699 5.94828 10.6759 6.10362 10.6759 6.29779C10.6953 7.28807 11.4133 8.18127 12.4418 8.35603ZM10.1907 3.69587C10.2295 3.77354 10.3071 3.85121 10.4042 3.87063L12.2866 4.20072C12.3836 4.22014 12.4806 4.1813 12.5388 4.12305C12.597 4.04538 12.6359 3.96771 12.6165 3.87063C12.4806 3.26869 12.0925 2.84151 11.5879 2.74442C11.0834 2.64733 10.5788 2.91918 10.2295 3.44344C10.1713 3.5017 10.1713 3.59878 10.1907 3.69587Z" fill="#FC84D4"/>
</svg>