<svg xmlns="http://www.w3.org/2000/svg" width="85" height="85" viewBox="0 0 85 85" fill="none">
<path d="M42.5078 84.4609C19.3112 84.4609 0.507812 65.6575 0.507812 42.4609C0.507812 19.2643 19.3112 0.460938 42.5078 0.460938C65.7044 0.460938 84.5078 19.2643 84.5078 42.4609C84.5078 65.6575 65.7044 84.4609 42.5078 84.4609ZM27.8078 50.8609V59.2609H38.3078V67.6609H46.7078V59.2609H50.9078C53.6926 59.2609 56.3633 58.1547 58.3324 56.1856C60.3016 54.2164 61.4078 51.5457 61.4078 48.7609C61.4078 45.9762 60.3016 43.3054 58.3324 41.3363C56.3633 39.3672 53.6926 38.2609 50.9078 38.2609H34.1078C33.5509 38.2609 33.0167 38.0397 32.6229 37.6459C32.2291 37.252 32.0078 36.7179 32.0078 36.1609C32.0078 35.604 32.2291 35.0698 32.6229 34.676C33.0167 34.2822 33.5509 34.0609 34.1078 34.0609H57.2078V25.6609H46.7078V17.2609H38.3078V25.6609H34.1078C31.323 25.6609 28.6523 26.7672 26.6832 28.7363C24.7141 30.7054 23.6078 33.3762 23.6078 36.1609C23.6078 38.9457 24.7141 41.6164 26.6832 43.5856C28.6523 45.5547 31.323 46.6609 34.1078 46.6609H50.9078C51.4648 46.6609 51.9989 46.8822 52.3927 47.276C52.7866 47.6698 53.0078 48.204 53.0078 48.7609C53.0078 49.3179 52.7866 49.852 52.3927 50.2459C51.9989 50.6397 51.4648 50.8609 50.9078 50.8609H27.8078Z" fill="#7AD56E"/>
</svg>