<svg xmlns="http://www.w3.org/2000/svg" width="19" height="16" viewBox="0 0 19 16" fill="none">
<path d="M8 4.57143H10.2857V2.28571H12.5714V4.57143H14.8571V6.85714H17.1429V11.4286H18.2857V13.7143H16V11.4286H14.8571V16H10.2857V13.7143H12.5714V11.4286H5.71429V13.7143H8V16H3.42857V11.4286H2.28571V13.7143H0V11.4286H1.14286V6.85714H3.42857V4.57143H5.71429V2.28571H8V4.57143ZM5.71429 9.14286H8V6.85714H5.71429V9.14286ZM10.2857 9.14286H12.5714V6.85714H10.2857V9.14286ZM5.71429 2.28571H3.42857V0H5.71429V2.28571ZM14.8571 0V2.28571H12.5714V0H14.8571Z" fill="#6E90FF"/>
</svg>