<svg xmlns="http://www.w3.org/2000/svg" width="87" height="72" viewBox="0 0 87 72" fill="none">
<path fill-rule="evenodd" clip-rule="evenodd" d="M86.2316 18.8594H64.0647V44.9642H25.7681V60.4858H63.1184L77.4943 71.6738V60.4858H86.2316V18.8594ZM0.785156 0.517578H61.2498V42.1493H23.9103L9.52903 53.332V42.1493H0.785156V0.517578ZM49.0808 15.1503C50.1355 15.1497 51.1668 15.4618 52.0442 16.0473C52.9215 16.6328 53.6056 17.4653 54.0097 18.4396C54.4139 19.4139 54.5201 20.4861 54.3149 21.5207C54.1097 22.5553 53.6023 23.5059 52.8568 24.2521C52.1113 24.9983 51.1613 25.5067 50.1269 25.713C49.0925 25.9192 48.0201 25.8141 47.0455 25.4109C46.0708 25.0077 45.2376 24.3246 44.6512 23.4478C44.0648 22.571 43.7516 21.5401 43.7512 20.4853C43.7512 19.0713 44.3125 17.7152 45.3119 16.7148C46.3112 15.7145 47.6668 15.1517 49.0808 15.1503ZM31.0175 15.1503C32.0722 15.1497 33.1035 15.4618 33.9809 16.0473C34.8582 16.6328 35.5423 17.4653 35.9465 18.4396C36.3506 19.4139 36.4568 20.4861 36.2516 21.5207C36.0464 22.5553 35.539 23.5059 34.7935 24.2521C34.048 24.9983 33.098 25.5067 32.0636 25.713C31.0292 25.9192 29.9569 25.8141 28.9822 25.4109C28.0075 25.0077 27.1743 24.3246 26.5879 23.4478C26.0015 22.571 25.6883 21.5401 25.6879 20.4853C25.6876 19.0712 26.2488 17.7149 27.2482 16.7145C28.2476 15.7141 29.6034 15.1515 31.0175 15.1503ZM12.9542 15.1503C14.0089 15.1501 15.04 15.4627 15.9171 16.0484C16.7942 16.6342 17.4779 17.467 17.8817 18.4413C18.2855 19.4157 18.3914 20.4879 18.1858 21.5224C17.9803 22.5569 17.4725 23.5073 16.7269 24.2532C15.9812 24.9992 15.0311 25.5073 13.9967 25.7133C12.9623 25.9192 11.89 25.8139 10.9155 25.4104C9.94095 25.007 9.10793 24.3236 8.52178 23.4468C7.93562 22.5699 7.62265 21.5389 7.62244 20.4842C7.62215 19.0703 8.18324 17.7142 9.1824 16.7138C10.1816 15.7134 11.537 15.1507 12.9509 15.1492L12.9542 15.1503Z" fill="#66C6F0"/>
</svg>