<svg xmlns="http://www.w3.org/2000/svg" width="17" height="16" viewBox="0 0 17 16" fill="none">
<path d="M16.0345 16H0.000647013L0.000647015 13.6464C0.000647015 13.5219 0.0503317 13.4024 0.138771 13.3144C0.22721 13.2263 0.347159 13.1768 0.472231 13.1768H15.5629C15.688 13.1768 15.8079 13.2263 15.8964 13.3144C15.9848 13.4024 16.0345 13.5219 16.0345 13.6464V16ZM3.77332 12.1842V5.19389H0.943815V12.1842H3.77332ZM9.43233 12.1842V5.19389H6.60282V12.1842H9.43233ZM15.0913 12.1842V5.19389H12.2618V12.1842H15.0913ZM0.472231 5.66347H15.5629C15.688 5.66347 15.8079 5.614 15.8964 5.52594C15.9848 5.43787 16.0345 5.31843 16.0345 5.19389V3.31555C16.0397 3.2157 16.0134 3.11673 15.9593 3.03252C15.9052 2.94831 15.8259 2.88307 15.7327 2.84596L8.18734 0.0284461C8.07737 -0.00948204 7.95778 -0.00948204 7.8478 0.0284461L0.302461 2.84596C0.209228 2.88307 0.129995 2.94831 0.0758701 3.03252C0.0217452 3.11673 -0.00455819 3.2157 0.000647015 3.31555V5.19389C0.000647015 5.31843 0.0503317 5.43787 0.138771 5.52594C0.22721 5.614 0.347159 5.66347 0.472231 5.66347Z" fill="#F9D645"/>
</svg>