<svg xmlns="http://www.w3.org/2000/svg" width="18" height="16" viewBox="0 0 18 16" fill="none">
<g id="Group">
<path id="Vector" d="M16.9906 14.263H11.5198C11.4329 14.263 11.3461 14.263 11.2593 14.1762L1.09911 6.79486C0.92543 6.62119 0.664913 6.70803 0.578074 6.8817L0.0570405 7.66325C-0.0297984 7.83693 -0.0297984 8.09745 0.143879 8.18429L10.4777 15.913C10.5645 15.913 10.6514 15.9998 10.7382 15.9998H16.9906C17.1643 15.9998 17.338 15.8261 17.338 15.6524V14.6972C17.338 14.4367 17.1643 14.263 16.9906 14.263Z" fill="#F19E7C"/>
<path id="Vector_2" d="M11.6071 12.6134C11.6939 12.7002 11.7808 12.7002 11.8676 12.7002H16.9043C17.1648 12.7002 17.3385 12.5265 17.2516 12.266C16.8174 9.57399 14.1254 8.7056 12.9965 8.44508C12.6492 8.35824 12.3886 8.09773 12.3018 7.83721L10.6519 2.88739C10.565 2.71372 10.3913 2.62688 10.2177 2.62688C7.35198 2.88739 5.70204 1.06378 5.09417 0.195388C4.92049 -0.0651292 4.57313 -0.0651292 4.48629 0.195388L1.44693 4.71101C1.36009 4.88469 1.36009 5.14521 1.53377 5.23204L11.6071 12.6134ZM11.2597 7.66353C11.3466 7.92405 11.1729 8.09773 10.9124 8.18457C10.6519 8.27141 10.4782 8.09773 10.3913 7.83721C10.3045 7.57669 10.4782 7.40302 10.7387 7.31618C10.9124 7.31618 11.1729 7.40302 11.2597 7.66353ZM10.8255 5.92676C10.9124 6.18727 10.7387 6.36095 10.4782 6.44779C10.2177 6.53463 10.044 6.36095 9.95715 6.10043C9.87031 5.83992 10.044 5.66624 10.3045 5.5794C10.4782 5.5794 10.7387 5.75308 10.8255 5.92676ZM9.78347 4.0163C10.044 3.92946 10.2177 4.10314 10.3045 4.36366C10.3913 4.53733 10.3045 4.79785 10.044 4.79785C9.78347 4.88469 9.60979 4.71101 9.52295 4.53733C9.43611 4.27682 9.60979 4.0163 9.78347 4.0163Z" fill="#F19E7C"/>
</g>
</svg>